<svg width="32" height="32" viewBox="0 0 32 32" fill="none" xmlns="http://www.w3.org/2000/svg">
<path fill-rule="evenodd" clip-rule="evenodd" d="M16 1.66667C15.7348 1.66667 15.4804 1.77203 15.2929 1.95957C15.1054 2.1471 15 2.40146 15 2.66667V17.2973L12.76 14.6827C12.6745 14.5829 12.5703 14.5009 12.4531 14.4414C12.336 14.3819 12.2083 14.346 12.0773 14.3358C11.9463 14.3257 11.8146 14.3414 11.6897 14.3822C11.5648 14.4229 11.4491 14.4879 11.3493 14.5733C11.2495 14.6588 11.1675 14.7631 11.108 14.8802C11.0485 14.9973 11.0127 15.125 11.0025 15.256C10.9924 15.387 11.0081 15.5187 11.0488 15.6436C11.0896 15.7685 11.1545 15.8842 11.24 15.984L15.24 20.6507C15.3339 20.7605 15.4504 20.8486 15.5816 20.909C15.7128 20.9695 15.8555 21.0007 16 21.0007C16.1444 21.0007 16.2872 20.9695 16.4184 20.909C16.5496 20.8486 16.6661 20.7605 16.76 20.6507L20.76 15.984C20.8454 15.8842 20.9104 15.7685 20.9511 15.6436C20.9919 15.5187 21.0076 15.387 20.9975 15.256C20.9873 15.125 20.9515 14.9973 20.892 14.8802C20.8325 14.7631 20.7505 14.6588 20.6507 14.5733C20.5509 14.4879 20.4352 14.4229 20.3103 14.3822C20.1854 14.3414 20.0537 14.3257 19.9227 14.3358C19.7917 14.346 19.664 14.3819 19.5468 14.4414C19.4297 14.5009 19.3254 14.5829 19.24 14.6827L17 17.296V2.66667C17 2.40146 16.8946 2.1471 16.7071 1.95957C16.5196 1.77203 16.2652 1.66667 16 1.66667Z" fill="#A7BA88"/>
<path d="M19 12V12.504C19.6231 12.2825 20.302 12.2732 20.931 12.4776C21.56 12.682 22.1037 13.0886 22.4777 13.6341C22.8516 14.1796 23.0347 14.8334 22.9984 15.4938C22.9622 16.1542 22.7087 16.784 22.2773 17.2853L18.2773 21.952C17.9957 22.2804 17.6463 22.5441 17.2532 22.7248C16.8601 22.9055 16.4326 22.9991 16 22.9991C15.5673 22.9991 15.1398 22.9055 14.7467 22.7248C14.3536 22.5441 14.0043 22.2804 13.7226 21.952L9.72263 17.2853C9.29247 16.7837 9.03996 16.1541 9.0043 15.4943C8.96864 14.8345 9.15184 14.1813 9.52543 13.6363C9.89903 13.0912 10.4421 12.6848 11.0704 12.4801C11.6987 12.2753 12.377 12.2837 13 12.504V12H10.6666C6.89596 12 5.00929 12 3.83863 13.172C2.66663 14.3427 2.66663 16.2293 2.66663 20V21.3333C2.66663 25.104 2.66663 26.9907 3.83863 28.1613C5.00929 29.3333 6.89596 29.3333 10.6666 29.3333H21.3333C25.104 29.3333 26.9906 29.3333 28.1613 28.1613C29.3333 26.9907 29.3333 25.104 29.3333 21.3333V20C29.3333 16.2293 29.3333 14.3427 28.1613 13.172C26.9906 12 25.104 12 21.3333 12H19Z" fill="#A7BA88"/>
</svg>
