<svg width="31" height="31" viewBox="0 0 31 31" fill="none" xmlns="http://www.w3.org/2000/svg">
<path d="M3.62202 8.94631C7.36785 2.45956 15.6616 0.236599 22.1484 3.98243C24.7188 5.46582 26.7317 7.75137 27.8785 10.4886C29.0252 13.2259 29.2425 16.2637 28.4969 19.1363C28.0862 20.7186 26.159 21.1642 25.0637 20.0998L24.941 19.9707L22.0334 16.6291C20.7379 15.1411 22.0644 12.8962 23.9425 13.2346L24.1143 13.2734L24.7834 13.4465C24.2791 11.3679 23.1011 9.5147 21.4331 8.17584C19.7652 6.83698 17.701 6.08775 15.5626 6.04501C13.4242 6.00228 11.3317 6.66844 9.61158 7.93959C7.89145 9.21074 6.64035 11.0154 6.05341 13.0722C5.46648 15.1289 5.5767 17.3221 6.36689 19.3096C7.15708 21.2971 8.58281 22.9673 10.4217 24.0596C12.2606 25.1518 14.4093 25.6049 16.5327 25.3479C18.656 25.091 20.6347 24.1386 22.16 22.6393C22.3414 22.4608 22.5562 22.3199 22.7921 22.2244C23.028 22.129 23.2804 22.0809 23.5348 22.083C23.7893 22.0851 24.0408 22.1373 24.2751 22.2367C24.5094 22.336 24.7218 22.4805 24.9003 22.6619C25.0787 22.8433 25.2197 23.0581 25.3151 23.294C25.4106 23.5298 25.4586 23.7822 25.4565 24.0367C25.4544 24.2911 25.4022 24.5427 25.3029 24.777C25.2036 25.0113 25.0591 25.2237 24.8777 25.4021C20.6397 29.5716 13.9889 30.5921 8.5859 27.4727C2.09915 23.7268 -0.123813 15.4343 3.62202 8.94631ZM15.3671 7.33172C15.8486 7.33172 16.3128 7.51095 16.6693 7.8345C17.0258 8.15806 17.2491 8.60275 17.2956 9.08193L17.3046 9.26922V14.9254L19.9655 17.5863C20.3183 17.9371 20.5226 18.4102 20.536 18.9075C20.5495 19.4049 20.3712 19.8884 20.0379 20.2578C19.7047 20.6272 19.2421 20.8543 18.746 20.892C18.2499 20.9297 17.7583 20.7751 17.3731 20.4602L17.2259 20.3272L13.9967 17.098C13.68 16.7812 13.4828 16.3645 13.4387 15.9187L13.4296 15.7276V9.26922C13.4296 8.75537 13.6338 8.26256 13.9971 7.8992C14.3605 7.53585 14.8533 7.33172 15.3671 7.33172Z" fill="#A7BA88"/>
</svg>
