<svg width="33" height="33" viewBox="0 0 33 33" fill="none" xmlns="http://www.w3.org/2000/svg">
<path d="M8.6013 28.3384C8.20627 28.3377 7.81824 28.2341 7.47537 28.0379C6.7033 27.6004 6.22333 26.7511 6.22333 25.8292V7.17081C6.22333 6.24626 6.7033 5.39955 7.47537 4.96205C7.8264 4.7603 8.22519 4.65655 8.63003 4.66165C9.03488 4.66674 9.43093 4.78049 9.77678 4.991L25.7232 14.5364C26.0556 14.7447 26.3295 15.0341 26.5195 15.3774C26.7094 15.7206 26.809 16.1064 26.809 16.4987C26.809 16.891 26.7094 17.2768 26.5195 17.62C26.3295 17.9633 26.0556 18.2527 25.7232 18.461L9.77421 28.009C9.42027 28.223 9.01488 28.3368 8.6013 28.3384Z" fill="#A7BA88"/>
</svg>
