<svg width="37" height="36" viewBox="0 0 37 36" fill="none" xmlns="http://www.w3.org/2000/svg">
<path d="M25.4446 13.5H23.0596V6C23.0596 5.175 22.3846 4.5 21.5596 4.5H15.5596C14.7346 4.5 14.0596 5.175 14.0596 6V13.5H11.6746C10.3396 13.5 9.66463 15.12 10.6096 16.065L17.4946 22.95C18.0796 23.535 19.0246 23.535 19.6096 22.95L26.4946 16.065C27.4396 15.12 26.7796 13.5 25.4446 13.5ZM8.05963 28.5C8.05963 29.325 8.73463 30 9.55963 30H27.5596C28.3846 30 29.0596 29.325 29.0596 28.5C29.0596 27.675 28.3846 27 27.5596 27H9.55963C8.73463 27 8.05963 27.675 8.05963 28.5Z" fill="#A7BA88"/>
</svg>
