<svg width="28" height="26" viewBox="0 0 28 26" fill="none" xmlns="http://www.w3.org/2000/svg">
<path d="M18.8715 6.50664C18.023 4.52026 16.5147 2.88779 14.6015 1.8852C12.6883 0.882621 10.4876 0.571438 8.3714 1.00426C6.25522 1.43709 4.35342 2.58737 2.98751 4.26064C1.62159 5.93391 0.875372 8.02751 0.875 10.1875V17.6875C0.875 18.1848 1.07254 18.6617 1.42417 19.0133C1.77581 19.365 2.25272 19.5625 2.75 19.5625H9.15664C9.88822 21.2332 11.0904 22.6547 12.6164 23.6536C14.1424 24.6525 15.9262 25.1855 17.75 25.1875H25.25C25.7473 25.1875 26.2242 24.99 26.5758 24.6383C26.9275 24.2867 27.125 23.8098 27.125 23.3125V15.8125C27.1246 13.5206 26.2846 11.3083 24.7638 9.59364C23.2431 7.87899 21.1469 6.78081 18.8715 6.50664ZM25.25 23.3125H17.75C16.4238 23.311 15.1216 22.9586 13.9756 22.2911C12.8296 21.6237 11.8807 20.6649 11.225 19.5121C12.509 19.3789 13.7517 18.9816 14.8749 18.3454C15.9982 17.7091 16.9778 16.8475 17.7522 15.8147C18.5267 14.7818 19.0793 13.6001 19.3753 12.3435C19.6714 11.087 19.7045 9.78283 19.4727 8.51289C21.1171 8.90098 22.5823 9.83297 23.6309 11.1579C24.6795 12.4827 25.25 14.1229 25.25 15.8125V23.3125Z" fill="#334242"/>
</svg>
